# xmcd
#
# Track frame offsets: 
#        150
#        17523
#        28947
#        41512
#        54387
#        70284
#        87239
#        101891
#        119285
#        135491
#        148164
#
# Disc length: 2199 seconds
#
# Revision: 1
# Processed by: cddbd v1.5.2PL0 Copyright (c) Steve Scherf et al.
# Submitted via: ExactAudioCopy v0.95b4
#
DISCID=9808950b
DTITLE=Blue Vipers of Brooklyn - Forty Days and Forty Nights
DYEAR=2007
DGENRE=Jazz
TTITLE0=When You're Smiling
TTITLE1=Leave You Then
TTITLE2=Five Guys Named Moe
TTITLE3=Forty Days and Forty Nights
TTITLE4=Stardust
TTITLE5=Up Up and Away
TTITLE6=Cross the Room
TTITLE7=Outskirts of Town
TTITLE8=Gloryland
TTITLE9=World is Waiting
TTITLE10=Perdon
EXTD=
EXTT0=
EXTT1=
EXTT2=
EXTT3=
EXTT4=
EXTT5=
EXTT6=
EXTT7=
EXTT8=
EXTT9=
EXTT10=
PLAYORDER=
